<svg xmlns="http://www.w3.org/2000/svg" viewBox="0 0 272.28 83.04"><defs><style>.cls-1{fill:#171730;}.cls-2{fill:#332c2b;}.cls-3{fill:#fff;}.cls-4{fill:#a8cbe0;}.cls-5{fill:none;}.cls-6{fill:#757475;}.cls-7{fill:#474443;}.cls-8{fill:#c9caca;}.cls-9{fill:#fd7a00;}.cls-10{fill:#050506;}.cls-11{fill:#fdc200;}.cls-12{fill:#fefefe;}</style></defs><title>logo_1</title><g id="Layer_2" data-name="Layer 2"><g id="Layer_1-2" data-name="Layer 1"><path class="cls-1" d="M59.65,0s-1.12,8.42-7,13.26-14.39,4.29-14.39,4.29,1.13-8.41,7-13.27S59.65,0,59.65,0Z"/><path class="cls-1" d="M66,15.38s-4.71,7.07-12.16,8.81S39,21.71,39,21.71s4.71-7.07,12.15-8.81S66,15.38,66,15.38Z"/><path class="cls-2" d="M28.57,6.58c13.15,0,23.82,9.86,23.82,22s-10.67,22-23.82,22-23.82-9.86-23.82-22S15.42,6.58,28.57,6.58Z"/><path class="cls-1" d="M16.1,68.27l-6,1.29s-1.95-2.92-4.79-3S1,69.1.92,71,5.36,82.27,7.24,82.11s9.45-2.8,10.12-3l0-9.83Z"/><path class="cls-1" d="M15.86,69.27,9.69,70.59l-.35-.52s-1.7-2.53-4.06-2.62h0A3,3,0,0,0,2.79,68.6,4.27,4.27,0,0,0,1.84,71v.11a22.6,22.6,0,0,0,2.39,5.92c1.15,2.15,2.38,4.06,2.93,4.14a39.1,39.1,0,0,0,5.27-1.45c1.61-.51,3.15-1,4-1.32l0-8.72Zm-5.38-.74,5.85-1.25,1.92,1.53,0,10.92-.62.22c-.34.11-2.43.84-4.66,1.55A39,39,0,0,1,7.31,83H7.15c-1.31,0-3.1-2.43-4.53-5.12A23.81,23.81,0,0,1,0,71.29,2.53,2.53,0,0,1,0,71V71a6.17,6.17,0,0,1,1.35-3.53,4.81,4.81,0,0,1,3.93-1.82h0A7.55,7.55,0,0,1,10.48,68.53ZM7.2,81.19Z"/><path class="cls-3" d="M17.32,69.25l0,7.07-.46.12L17,77l.09.92h0c-1.71.59-3.44,1.16-5.16,1.71-1,.3-1.94.6-2.91.86a11.15,11.15,0,0,1-1.66.39c-1.43-.81-5.18-8.31-5.14-9.81a3.26,3.26,0,0,1,3.13-3.32A5.47,5.47,0,0,1,9,70.1H9v0h0a9.16,9.16,0,0,1,1.21,2.95,12.82,12.82,0,0,1,.29,3.45,13,13,0,0,0,.19-4.39c-.14-.66-.27-1.12-.37-1.45Z"/><path class="cls-4" d="M17.32,69.25v.15l-.06-.14Zm0,4.59v2.48l-.46.12L17,77l.09.92h0c-1.71.59-3.44,1.16-5.16,1.71-1,.3-1.94.6-2.91.86a11.15,11.15,0,0,1-1.66.39c-1.43-.81-5.18-8.31-5.14-9.81a3.4,3.4,0,0,1,2.45-3.26,7.37,7.37,0,0,1,2.1,3.53A34,34,0,0,1,8.5,78.51Z"/><path class="cls-5" d="M15.47,51.71s-5.56,2.25-7,5.61,3.35,8.61,3.35,8.61a4.07,4.07,0,0,0,3.76-.81,6.79,6.79,0,0,0,2.2-2.89l-3-3.59m2.19-1-1.5,2.08"/><path class="cls-5" d="M38.56,51.66s5.56,2.26,7,5.61-3.35,8.61-3.35,8.61a4.07,4.07,0,0,1-3.76-.81,6.79,6.79,0,0,1-2.2-2.89l3-3.58m-2.2-1,1.51,2.07"/><path class="cls-1" d="M6.43,56.27c1.54-4.42,9.43-7.47,9.46-7.48l.47-.13,2.48-.41a54.38,54.38,0,0,1,8.63-1.08,46.69,46.69,0,0,1,8.07,1l2.58.43.47.12s7.92,3.06,9.46,7.48C49.66,60.79,44.69,67,44.68,67l-.24.27-.71,1-32,1.85L9.41,67.75l.62-.37-.23-.26S4.82,60.87,6.43,56.27Z"/><path class="cls-3" d="M16.73,50.94s-6.31,2.44-7.92,5.62l5.12.82.22.1,1,.81,0,0,.53.21.74-.78L17.27,51l1.38.16-1.26,9.54,1.52,1.88-.16.39a8.53,8.53,0,0,1-2.44,3.16l-.58.37v.13L11,69.47l.65.7,30.16-1.74-3.11-1.85,0-.14-.61-.39a8.49,8.49,0,0,1-2.43-3.16l-.17-.38,1.77-2.2-1.8-8.56,1.37-.24,1.4,6.31.56.59,1.07-.49.07-.06.22-.09.08,0,1.21-.55-.3.41,4.65-.75c-1.27-3.36-8.1-6-8.1-6C26.58,49,28.59,49,16.73,50.94Zm23.56,7.87-.12.15-.74.92L45.08,62a8.44,8.44,0,0,0,1-4.25l-5.58.9Zm-1.46,1.82-1.67,2.08a6.31,6.31,0,0,0,1.76,2.19,13.92,13.92,0,0,0,1.49.89l.48.16a2.28,2.28,0,0,0,1.76-.11l.21-.24a19.55,19.55,0,0,0,1.79-2.77ZM8.49,57.44a7.16,7.16,0,0,0,.68,4.14l5.47-2.06-.35-.44-.47-.67-.17-.14Zm1.07,5a21.17,21.17,0,0,0,2,3.27l.21.24a2.35,2.35,0,0,0,1.76.11c.23-.07.46-.16.68-.24s.74-.42,1.29-.78a6.29,6.29,0,0,0,1.75-2.2l-2.05-2.55Z"/><path class="cls-4" d="M40.51,67.63l-.41-.24-.19.38ZM13.93,57.38l.22.1,1,.81,0,0,.53.21.74-.78.43-3.14.1-.76L17.27,51l1.38.16-.53,4.06A22.82,22.82,0,0,0,24.42,57a29.07,29.07,0,0,0,11.93-1.32l-.84-4,1.37-.24.83,3.77c1.08-.37,2-.76,2.88-1.11.87.89,2.09,2.18,2.81,3.08l2.44-.39a8.62,8.62,0,0,0-3.36-3.55h0L42.05,53h0L42,53h0l-.09,0h0l-.31-.18h0l-.08-.05h0l-.08,0h0a28.4,28.4,0,0,0-3.6-1.76c-11.16-1.83-9.15-1.87-21,.09a28.81,28.81,0,0,0-3.27,1.56A24.09,24.09,0,0,0,16,54.16Zm4.64,6q-.11.21-.27.48l.43-.13Zm-5.79-5.25,1,1.72.9-.33-.35-.44-.47-.67-.17-.14Zm1.41,2.54,2.07,3.7a7.88,7.88,0,0,0,1-1.55l-2.05-2.55ZM44,58.09c.16.43-.31,1.79-.89,3.17l2,.75a8.44,8.44,0,0,0,1-4.25Zm-1.26,4c-.63,1.43-1.26,2.68-1.26,2.68l-.6,1.16h0a2.28,2.28,0,0,0,1.76-.11l.21-.24a19.55,19.55,0,0,0,1.79-2.77Z"/><path class="cls-1" d="M39.58,67.66l6,1.29s2-2.92,4.79-3,4.34,2.57,4.39,4.5S50.32,81.66,48.44,81.5s-9.44-2.8-10.12-3l0-9.83Z"/><path class="cls-1" d="M39.77,66.76l5.43,1.16C46,67,47.85,65.09,50.34,65h0a4.77,4.77,0,0,1,3.92,1.81,6.16,6.16,0,0,1,1.37,3.54v0a2.62,2.62,0,0,1,0,.29,24,24,0,0,1-2.6,6.62c-1.44,2.69-3.23,5.09-4.54,5.12h-.16a39,39,0,0,1-5.69-1.53c-2.23-.71-4.32-1.44-4.66-1.56l-.63-.21,0-10.93,1.91-1.52Zm5.61,3.09-5.56-1.19-.55.43,0,8.72c.85.29,2.39.81,4,1.32a38.66,38.66,0,0,0,5.27,1.44c.56-.08,1.78-2,2.93-4.13a22.73,22.73,0,0,0,2.39-5.92v-.11A4.09,4.09,0,0,0,52.89,68a3,3,0,0,0-2.45-1.15h0c-2.36.09-4,2.61-4.06,2.62L46,70Zm3.1,10.73Z"/><path class="cls-3" d="M38.36,68.64l0,7.07.46.11,0,.55-.1.92h0c1.71.6,3.44,1.17,5.16,1.71,1,.31,1.93.61,2.91.87a11.15,11.15,0,0,0,1.66.39c1.43-.81,5.18-8.31,5.15-9.82a3.27,3.27,0,0,0-3.14-3.32,5.52,5.52,0,0,0-3.73,2.36h0v0h0a8.89,8.89,0,0,0-1.2,3,12.62,12.62,0,0,0-.3,3.45,12.85,12.85,0,0,1-.18-4.39,13.7,13.7,0,0,1,.36-1.45Z"/><path class="cls-4" d="M38.36,68.64v.15l.07-.14Zm0,4.58v2.49l.46.11,0,.55-.1.92h0c1.71.6,3.44,1.17,5.16,1.71,1,.31,1.93.61,2.91.87a11.15,11.15,0,0,0,1.66.39c1.43-.81,5.18-8.31,5.15-9.82a3.43,3.43,0,0,0-2.46-3.26A7.41,7.41,0,0,0,49,70.72a35.28,35.28,0,0,0-1.83,7.18Z"/><path class="cls-4" d="M16.83,74.11l-.5,4s1.82.06,6.67-1.33,16.39,1,16.39,1l-.11-3.5Z"/><path class="cls-6" d="M18,64H36.61A12.74,12.74,0,0,0,38,65.63c1.54,1.62,4.69,2.23,4.69,2.23l1.64-.49a5.3,5.3,0,0,1,.33,1.83h0a5.26,5.26,0,0,1-5.25,5.24H14.78A5.26,5.26,0,0,1,9.53,69.2h0a5.19,5.19,0,0,1,.29-1.73l1.33,1.68s4.25-2.26,5.75-3.81A8.31,8.31,0,0,0,18,64Z"/><path class="cls-7" d="M44.28,67.37a5.26,5.26,0,0,1,.33,1.83h0a5.26,5.26,0,0,1-5.25,5.24H14.78A5.26,5.26,0,0,1,9.53,69.2h0a5.19,5.19,0,0,1,.29-1.73l1.33,1.68.9-.5a6.42,6.42,0,0,0,1.52.52,16.85,16.85,0,0,0,6.91-.3l14.31,0s4.39,1,6.69-.28a6.37,6.37,0,0,0,1.11-.77h0Z"/><path class="cls-1" d="M18.29,63.48h18c.17.28.38.6.62.94H17.69A6,6,0,0,0,18.29,63.48Zm26.44,3.75a5.59,5.59,0,0,1,.35,2,5.75,5.75,0,0,1-5.72,5.72H14.78a5.72,5.72,0,0,1-5.41-7.58l.3,0,.51.63A4.5,4.5,0,0,0,10,69.2,4.8,4.8,0,0,0,14.78,74H39.36a4.8,4.8,0,0,0,4.78-4.77,4.5,4.5,0,0,0-.32-1.69Z"/><path class="cls-8" d="M18,64.06c2.09.4,3.58,1.42,3.58,2.62,0,1.55-2.48,2.8-5.52,2.8a8.87,8.87,0,0,1-3.93-.83,26.84,26.84,0,0,0,4.81-3.28A9.83,9.83,0,0,0,18,64.06Z"/><path class="cls-1" d="M18.22,63.61a8.16,8.16,0,0,1,1.92.65,2.48,2.48,0,0,1,0,4.8,9.34,9.34,0,0,1-4.12.87,9.26,9.26,0,0,1-4.11-.87,2.11,2.11,0,0,1-.3-.16l1-.56A8.7,8.7,0,0,0,16,69a8.45,8.45,0,0,0,3.69-.77c.84-.43,1.36-1,1.36-1.56s-.52-1.14-1.36-1.56a7,7,0,0,0-2.05-.64A6.48,6.48,0,0,0,18.22,63.61Z"/><path class="cls-8" d="M42.61,67.86a7.4,7.4,0,0,1-4.87,1.48c-3,0-5.51-1.25-5.51-2.8,0-1.32,1.82-2.44,4.26-2.73a12.1,12.1,0,0,0,1.43,1.82C39.45,67.24,42.59,67.86,42.61,67.86Z"/><path class="cls-1" d="M43.45,67.62A3.79,3.79,0,0,1,41.89,69a10.27,10.27,0,0,1-8.23,0,2.48,2.48,0,0,1,0-4.81,8.4,8.4,0,0,1,2.59-.77,9.19,9.19,0,0,0,.57.89,7.58,7.58,0,0,0-2.74.72c-.84.43-1.35,1-1.35,1.56s.51,1.14,1.35,1.56a8.32,8.32,0,0,0,3.7.77,8.31,8.31,0,0,0,3.69-.77,4.49,4.49,0,0,0,.61-.37c.34.09.56.13.56.13Z"/><polygon class="cls-1" points="19.5 68.36 35 68.49 34.99 69.43 19.49 69.31 19.5 68.36"/><path class="cls-6" d="M13.83,69.87h3.75a.92.92,0,0,1,.91.92h0a.91.91,0,0,1-.91.91H13.83a.92.92,0,0,1-.92-.91h0A.92.92,0,0,1,13.83,69.87Z"/><path class="cls-1" d="M13.83,69.4h3.75A1.4,1.4,0,0,1,19,70.79a1.37,1.37,0,0,1-.41,1h0a1.39,1.39,0,0,1-1,.41H13.83a1.39,1.39,0,0,1-1-.41,1.36,1.36,0,0,1,0-2h0A1.41,1.41,0,0,1,13.83,69.4Zm3.75.95H13.83a.43.43,0,0,0-.31.12h0a.46.46,0,0,0-.13.32.44.44,0,0,0,.44.44h3.75a.43.43,0,0,0,.3-.13h0a.49.49,0,0,0,.13-.31.47.47,0,0,0-.14-.32A.42.42,0,0,0,17.58,70.35Z"/><path class="cls-6" d="M36.41,69.9h3.74a.92.92,0,0,1,.91.92h0a.91.91,0,0,1-.91.91H36.41a.91.91,0,0,1-.91-.91h0A.92.92,0,0,1,36.41,69.9Z"/><path class="cls-1" d="M36.41,69.43h3.74a1.38,1.38,0,0,1,1,.4,1.42,1.42,0,0,1,.41,1,1.39,1.39,0,0,1-.41,1h0a1.38,1.38,0,0,1-1,.4H36.41a1.37,1.37,0,0,1-1-.4,1.41,1.41,0,0,1-.41-1,1.39,1.39,0,0,1,.41-1h0A1.38,1.38,0,0,1,36.41,69.43Zm3.74.94H36.41a.41.41,0,0,0-.31.13h0a.44.44,0,0,0-.12.32.42.42,0,0,0,.13.31.42.42,0,0,0,.31.13h3.74a.42.42,0,0,0,.31-.13h0a.46.46,0,0,0,0-.63A.42.42,0,0,0,40.15,70.37Z"/><path class="cls-6" d="M13.8,71.7h3.74a.92.92,0,0,1,.92.92h0a.92.92,0,0,1-.92.91H13.8a.91.91,0,0,1-.91-.91h0A.92.92,0,0,1,13.8,71.7Z"/><path class="cls-1" d="M13.8,71.23h3.74a1.38,1.38,0,0,1,1,2.36h0a1.39,1.39,0,0,1-1,.41H13.8a1.4,1.4,0,0,1-1.39-1.38,1.37,1.37,0,0,1,.41-1h0A1.39,1.39,0,0,1,13.8,71.23Zm3.74.94H13.8a.44.44,0,0,0-.31.13h0a.48.48,0,0,0-.12.32.43.43,0,0,0,.13.3.45.45,0,0,0,.31.14h3.74a.49.49,0,0,0,.32-.13h0a.43.43,0,0,0,.13-.3.44.44,0,0,0-.45-.45Z"/><path class="cls-6" d="M36.38,71.73h3.74a.92.92,0,0,1,.92.91h0a.92.92,0,0,1-.92.92H36.38a.92.92,0,0,1-.92-.92h0A.92.92,0,0,1,36.38,71.73Z"/><path class="cls-1" d="M36.38,71.26h3.74a1.38,1.38,0,0,1,1,2.36h0a1.39,1.39,0,0,1-1,.41H36.38a1.39,1.39,0,0,1-1-.41,1.36,1.36,0,0,1,0-2h0A1.38,1.38,0,0,1,36.38,71.26Zm3.74.94H36.38a.44.44,0,0,0-.31.13h0a.44.44,0,0,0-.13.31.46.46,0,0,0,.13.32.43.43,0,0,0,.31.12h3.74a.43.43,0,0,0,.31-.12h0a.46.46,0,0,0,.13-.32.44.44,0,0,0-.44-.44Z"/><path class="cls-7" d="M22.76,60.65c1.63,0,3,.6,3,1.34s-1,1.18-2.34,1.31v1.19a.71.71,0,0,1-.72.71h0a.71.71,0,0,1-.71-.71V63.28c-1.24-.16-2.15-.68-2.15-1.29S21.12,60.65,22.76,60.65Z"/><path class="cls-1" d="M22.76,60.17a5.73,5.73,0,0,1,2.29.44A1.63,1.63,0,0,1,26.19,62a1.5,1.5,0,0,1-.9,1.25,4.35,4.35,0,0,1-1.44.47v.78a1.16,1.16,0,0,1-.35.83h0a1.2,1.2,0,0,1-2-.83v-.81a4.61,4.61,0,0,1-1.32-.48A1.46,1.46,0,0,1,19.32,62c0-.58.44-1.06,1.15-1.38A5.66,5.66,0,0,1,22.76,60.17Zm1.9,1.3a5.19,5.19,0,0,0-3.8,0c-.37.16-.59.35-.59.52s.13.26.36.4a3.57,3.57,0,0,0,1.38.42l.41,0v1.63a.28.28,0,0,0,.07.17h0a.24.24,0,0,0,.34,0h0a.28.28,0,0,0,.07-.17V62.87l.42,0a4,4,0,0,0,1.5-.41c.26-.15.42-.3.42-.43S25,61.63,24.66,61.47Z"/><path class="cls-7" d="M32.62,60.42c1.64,0,3,.6,3,1.34s-1,1.18-2.34,1.31v1.19a.72.72,0,0,1-.72.71h0a.72.72,0,0,1-.72-.71V63.05c-1.24-.16-2.15-.68-2.15-1.29S31,60.42,32.62,60.42Z"/><path class="cls-1" d="M32.62,59.94a5.73,5.73,0,0,1,2.29.44,1.63,1.63,0,0,1,1.14,1.38v.12l-.36.44.09.18a2.17,2.17,0,0,1-.63.51,4.43,4.43,0,0,1-1.44.47v.78a1.19,1.19,0,0,1-.35.83h0a1.18,1.18,0,0,1-2-.83v-.81A4.3,4.3,0,0,1,30,63a1.47,1.47,0,0,1-.83-1.21c0-.58.44-1.06,1.15-1.38A5.66,5.66,0,0,1,32.62,59.94Zm1.9,1.3a4.69,4.69,0,0,0-1.9-.36,4.62,4.62,0,0,0-1.9.36c-.37.16-.59.35-.59.52s.13.26.36.4a3.57,3.57,0,0,0,1.37.42l.42.05v1.63a.28.28,0,0,0,.07.17h0a.24.24,0,0,0,.34,0h0a.23.23,0,0,0,.07-.17V62.64l.43,0a4.07,4.07,0,0,0,1.5-.41c.26-.15.42-.3.42-.43S34.88,61.4,34.52,61.24Z"/><path class="cls-1" d="M15.5,66.49v0a1.05,1.05,0,0,1-.72.91,2.92,2.92,0,0,1-1.1.25C14.29,67.31,14.93,66.9,15.5,66.49Z"/><path class="cls-9" d="M16.51,67.09c.81,0,1.47.32,1.47.71s-.66.71-1.47.71S15,68.19,15,67.8,15.69,67.09,16.51,67.09Z"/><path class="cls-1" d="M16.51,66.61a3,3,0,0,1,1.25.26,1,1,0,0,1,0,1.86,3,3,0,0,1-1.25.26,2.93,2.93,0,0,1-1.25-.26,1,1,0,0,1,0-1.86A2.93,2.93,0,0,1,16.51,66.61Zm.84,1.11a2.16,2.16,0,0,0-1.68,0l-.16.08.16.08a2.28,2.28,0,0,0,1.68,0l.16-.08Z"/><path class="cls-9" d="M19.41,65.9c.78,0,1.41.31,1.41.67s-.63.68-1.41.68S18,67,18,66.57,18.63,65.9,19.41,65.9Z"/><path class="cls-1" d="M19.41,65.43a2.85,2.85,0,0,1,1.2.24,1,1,0,0,1,.69.9,1,1,0,0,1-.69.9,2.84,2.84,0,0,1-1.2.25,2.88,2.88,0,0,1-1.2-.25,1,1,0,0,1-.68-.9,1,1,0,0,1,.68-.9A2.88,2.88,0,0,1,19.41,65.43Zm.8,1.1a2.21,2.21,0,0,0-1.6,0,1.31,1.31,0,0,1-.14,0s.05,0,.14.05a2.08,2.08,0,0,0,1.6,0c.09,0,.15,0,.15-.05A1.1,1.1,0,0,1,20.21,66.53Z"/><path class="cls-9" d="M17.44,64.74c.28.12.45.31.45.52,0,.38-.54.68-1.2.68a2.46,2.46,0,0,1-.4,0,6.87,6.87,0,0,0,.61-.56A5.85,5.85,0,0,0,17.44,64.74Z"/><path class="cls-1" d="M17.73,64.36l0,0a1,1,0,0,1,0,1.77,2.27,2.27,0,0,1-1.08.26,2.31,2.31,0,0,1-.86-.16,10.69,10.69,0,0,0,1-.79,1.24,1.24,0,0,0,.52-.13l.11-.07-.11-.06a.76.76,0,0,0-.2-.08A7.7,7.7,0,0,0,17.73,64.36Z"/><path class="cls-9" d="M36.86,64.86l0,1.4-2.4-.09-.16,1.33,2.53.31,0,.82h1.92v-.79L41,67.7l0-.31a7.87,7.87,0,0,1-3-1.76,9.21,9.21,0,0,1-.67-.77Z"/><path class="cls-1" d="M37.34,65.33l0,1.41-2.46-.09-.06.44,2.47.3,0,.77h1v-.77l2.14-.13v-.05c.34.14.67.25,1,.34l0,.6-2.2.13v.82H36.44l0-.87-2.61-.32.27-2.23,2.34.09,0-1.39h.53c.23.3.48.62.77.94Zm1.91,1.29-.78-.05,0-.49A7,7,0,0,0,39.25,66.62Z"/><path class="cls-1" d="M24.05,68.88h6.31a.57.57,0,0,0,.56-.57V66.49a.57.57,0,0,0-.56-.57H24.05a.57.57,0,0,0-.56.57v1.82A.57.57,0,0,0,24.05,68.88Z"/><path class="cls-1" d="M9.57,39.75a21,21,0,0,0,8.34,8.41l.36.19h0l.37.19h0A20.53,20.53,0,0,0,22.36,50a20.31,20.31,0,0,0,3.93.68,22.42,22.42,0,0,0,3.48,0,21.22,21.22,0,0,0,3.4-.61l.8-.23A21,21,0,0,0,48.61,31.25a22.36,22.36,0,0,0,0-3.17A21.2,21.2,0,0,0,48.14,25L48,24.22l.54-.58c.11-.13.24-.28.35-.44a3.5,3.5,0,0,0,.29-.49l2.72.26a24.88,24.88,0,0,1,.83,8.58,25.11,25.11,0,0,1-9.37,17.8,24.62,24.62,0,0,1-8.16,4.33A24.92,24.92,0,0,1,4.34,38.05,25.25,25.25,0,0,1,3,27.86a24.94,24.94,0,0,1,1.44-6.73l.9-2.49L7,20.73l.11.13h0l.16.18,1.38.54L8.17,22.9a19.7,19.7,0,0,0-.7,2.58,21.7,21.7,0,0,0-.37,2.67A21,21,0,0,0,9.57,39.75ZM35.68,10.24a20.9,20.9,0,0,0-12.9-.89A21,21,0,0,0,16.67,12h0l-.41.27-.41.28h0c-.42.3-.83.61-1.21.93s-.78.66-1.14,1l-.67.65L8.66,13.56,10.24,12c.31-.31.66-.64,1-1s.74-.65,1.1-.93a24.78,24.78,0,0,1,33.69,2.51c.26.28.52.58.78.88s.48.59.74.92L49,16.18l-4.4,1L44,16.46c-.3-.38-.64-.77-1-1.16s-.7-.72-1.08-1.07h0l-.36-.33-.37-.32h0A20.76,20.76,0,0,0,35.68,10.24Z"/><path class="cls-3" d="M29.52,7.32A22.44,22.44,0,1,1,5.64,28.05,22.38,22.38,0,0,1,29.52,7.32Z"/><path class="cls-3" d="M29.52,7.32A22.44,22.44,0,1,1,5.64,28.05,22.38,22.38,0,0,1,29.52,7.32Z"/><path class="cls-4" d="M29.52,7.32A22.48,22.48,0,0,1,43,46.17C49.57,35,50.06,17.81,35.12,12a16.14,16.14,0,0,0-1.74-.61h0C25.76,9,16.78,9.9,11.22,14.79A22.23,22.23,0,0,1,29.52,7.32Z"/><path class="cls-1" d="M42.13,12.46c.27.23.54.46.79.7C36.12,14.29,30.79,19,29.35,24.82l-.69-.38C30,18.48,35.28,13.66,42.13,12.46ZM15,11.39c.29-.21.59-.41.89-.6,6,2.1,10.29,7.05,11,12.69l-.73.32C25.32,18.24,21,13.41,15,11.39Z"/><path class="cls-1" d="M27.64,23.15l18.52-4.94.72,2a22.62,22.62,0,0,1,1.25,9.65c-.75,7.78-5,14.23-12.35,17.2A21.75,21.75,0,0,1,16.41,45.5C9.85,41.37,7.22,34.34,8,26.79a24.81,24.81,0,0,1,2.77-9.45l1.07-2,2,1Z"/><path class="cls-1" d="M44.68,21a20.2,20.2,0,0,1,1.13,8.65C43.53,53.33,7.92,51.17,10.27,27a22.37,22.37,0,0,1,2.5-8.57C20,22,27.4,25.62,27.4,25.62Z"/><path class="cls-3" d="M41,32.72c-.67-5-6.85-6.72-13.38-6.72s-12.72,1.74-13.39,6.72c-.45,3.36,1.83,8.67,10.64,6.63a12.07,12.07,0,0,1,5.48,0C39.15,41.48,41.41,36.08,41,32.72Z"/><path class="cls-10" d="M23.23,33.69A2.66,2.66,0,0,0,21.75,31a2.47,2.47,0,0,0-1.85,0,2.64,2.64,0,0,0-1.52,2.67v0a2.64,2.64,0,0,0,1.48,2.69,2.38,2.38,0,0,0,1.85,0,2.61,2.61,0,0,0,1.52-2.66v0Z"/><path class="cls-10" d="M31.9,33.69A2.66,2.66,0,0,1,33.38,31a2.49,2.49,0,0,1,1.86,0,2.64,2.64,0,0,1,1.51,2.67v0a2.64,2.64,0,0,1-1.48,2.69,2.38,2.38,0,0,1-1.85,0,2.61,2.61,0,0,1-1.52-2.66v0Z"/><path class="cls-11" d="M27.73,21.18l19.2-4.29c1.55-.42,4,4.56,1,7L27.17,28.72,7.37,20.83c-2.62-2.81.54-7.38,2-6.74Z"/><path class="cls-1" d="M11.21,14.8l13.87,5.36,1.13.43,1.52.59,2.36-.53,1.24-.27L43.2,17.72,46.26,17l.67-.15c1.3-.36,3.24,3.1,2,5.64a3.61,3.61,0,0,1-1,1.32l-1.41.33-.95.22L27.17,28.72l-16-6.38-3.75-1.5h0a3.73,3.73,0,0,1-1-1.92c-.42-2.57,1.8-5.33,3-4.82l.15.06ZM10.71,24,27,30.5l.1,0L45.78,26.1l1.13-.26,1.77-.42.3-.24a7.55,7.55,0,0,0,.59-.54,5.31,5.31,0,0,0,1.21-2.05,6.56,6.56,0,0,0,0-3.75C50.3,17.19,48.92,15,47,15.16a2.67,2.67,0,0,0-.47.07l-1.38.31-3.26.73-8.85,2-1.57.35-3.61.81-2.67-1-1.45-.56-11-4.24-.29-.11h0l-1.73-.67L10,12.52c-2.06-.87-4,1.25-4.73,2.94a6,6,0,0,0,.17,5.65,5.94,5.94,0,0,0,.66.88l.26.28.4.16Z"/><path class="cls-1" d="M17.21,49.44A22.46,22.46,0,0,1,5.64,28.05a23.08,23.08,0,0,1,1.14-5.62l-.4-.16L6.12,22c-.11-.12-.21-.24-.31-.37a23.81,23.81,0,0,0,4.9,24.23,23.33,23.33,0,0,0,31.71,2.36,23.81,23.81,0,0,0,8-24.85,5.55,5.55,0,0,1-.89,1.28A22.61,22.61,0,0,1,43,46.17a22.19,22.19,0,0,1-8.57,5l-.85.25a21.71,21.71,0,0,1-7.36.68A21.94,21.94,0,0,1,18,49.85ZM29.52,7.32a22,22,0,0,1,12.61,5.14c.27.23.54.46.79.7a22.77,22.77,0,0,1,2.23,2.38l1.28-.28c-.45-.59-.93-1.16-1.43-1.7A23.33,23.33,0,0,0,13.29,11.2a23,23,0,0,0-2,1.8l1.22.47A22.52,22.52,0,0,1,15,11.39c.29-.21.59-.41.89-.6A22.07,22.07,0,0,1,29.52,7.32Z"/><path class="cls-11" d="M13.65,58.27l-5.16-.83a7.16,7.16,0,0,0,.68,4.14l5.47-2.06-.35-.44-.47-.67Z"/><polygon class="cls-9" points="13.65 58.27 12.78 58.13 13.74 59.85 14.64 59.52 14.29 59.08 13.82 58.41 13.65 58.27"/><path class="cls-11" d="M40.17,59l-.74.92,5.48,2.06.17.07a8.44,8.44,0,0,0,1-4.25l-.31.05-5.27.85-.18.15Z"/><path class="cls-9" d="M43.08,61.26l1.83.68.17.07a8.44,8.44,0,0,0,1-4.25l-.31.05L44,58.09C44.13,58.52,43.66,59.88,43.08,61.26Z"/><path class="cls-11" d="M37.31,60.31l-.78-4.43c-.61.22-1.23.41-1.85.58a24.73,24.73,0,0,1-9.2.72,25,25,0,0,1-7.42-2l-.67,5.57,1.52,1.88-.16.39-.27.54h2.4a3.6,3.6,0,0,1-.59-.27,1.44,1.44,0,0,1-.81-1.19c0-.56.42-1,1.12-1.35a6.08,6.08,0,0,1,4.49,0c.69.32,1.12.79,1.12,1.35a1.48,1.48,0,0,1-.88,1.23,5.06,5.06,0,0,1-.52.23h6.44v0a4,4,0,0,1-1.3-.47,1.41,1.41,0,0,1-.81-1.18,1.6,1.6,0,0,1,1.12-1.35,6.1,6.1,0,0,1,4.5,0,1.59,1.59,0,0,1,1.11,1.35V62l-.34.43,0,.07Z"/><path class="cls-1" d="M15.48,78.44s9-2.89,12.37-3S41,77.82,41.05,77.82l-.34,1.34S31,76.7,27.89,76.81s-12,2.75-12,2.76Z"/><path class="cls-9" d="M30.12,57.52a23.46,23.46,0,0,1-4.66-.08,23.92,23.92,0,0,1-3.77-.73,25.54,25.54,0,0,1-3.61-1.32l-.08,0,.33-2.57.13.06a25,25,0,0,0,3.7,1.22,24.58,24.58,0,0,0,3.84.61,23.74,23.74,0,0,0,4.62-.09,24,24,0,0,0,4.51-1l.7-.24.12,0,.57,2.79-.09,0-.85.3-.87.26A23.75,23.75,0,0,1,30.12,57.52Z"/><path class="cls-12" d="M29.52,54.68c-.61,0-1.23.06-1.84.06v8.81h1.84v-.83a1.15,1.15,0,0,1,0-1.71Zm-3.8,0c-.62-.06-1.24-.14-1.84-.24l-.14,6a4.9,4.9,0,0,1,1.35.37,2.75,2.75,0,0,1,.48.28Zm-.2,8.55-.19.12a5.06,5.06,0,0,1-.52.23h.71Z"/><path class="cls-1" d="M15.25,79.36s9-3.1,12.37-3.22,13.17,2.55,13.2,2.55l-.34,1.44S30.8,77.5,27.67,77.62s-12,2.94-12,2.95Z"/><path class="cls-9" d="M44.23,17.49l2.7-.6c1.55-.42,4,4.56,1,7L27.17,28.72,7.37,20.83a3.77,3.77,0,0,1-1-3.16l21.09,8.81,17.6-4.19L45,20.48A9.55,9.55,0,0,0,44.23,17.49Z"/><g id="Camada_2" data-name="Camada 2"><g id="Camada_1-2" data-name="Camada 1-2"><path class="cls-3" d="M184.5,61h-8.36L161.93,40.57V61H154.8V34.83h-3.52V29h10.95L177.38,50.8V29h7.12Z"/><path class="cls-3" d="M198.73,61h-6V43.18h-3.54v-5.9h9.5Zm0-29.66a2.82,2.82,0,0,1-.86,2.11,2.78,2.78,0,0,1-2.07.85,2.94,2.94,0,0,1-2.21-5l.07-.06a2.93,2.93,0,0,1,2.14-.89,2.75,2.75,0,0,1,2.07.89A2.82,2.82,0,0,1,198.73,31.35Z"/><path class="cls-3" d="M229.37,61h-6V49.72A6.5,6.5,0,0,0,217,43.18h-4.2V61h-5.95V43.18h-3.54v-5.9h13.64a12.46,12.46,0,0,1,12.46,12.46Z"/><path class="cls-3" d="M242.85,61.56a16.77,16.77,0,0,1-12.41,16l-1.53-5.76a10.18,10.18,0,0,0,5.72-3.74,10.44,10.44,0,0,0,2.26-6.53V43.13h-3.53v-5.9h9.49Zm0-30.27A2.85,2.85,0,0,1,242,33.4a3,3,0,1,1,0-4.21l0,0a2.83,2.83,0,0,1,.89,2.13Z"/><path class="cls-3" d="M272.28,61h-6v-.66a11.89,11.89,0,0,1-6.51,1.87,12.47,12.47,0,0,1,0-24.93h12.47Zm-6-11.22V43.18h-6.51a6.23,6.23,0,0,0-4.62,1.89,6.62,6.62,0,0,0,0,9.28,6.45,6.45,0,0,0,9.13.08.6.6,0,0,0,.08-.08,6.35,6.35,0,0,0,1.92-4.6Z"/><path class="cls-3" d="M110.9,56.92l-5,5-3.17-3.13A16.62,16.62,0,0,1,76.83,45,16,16,0,0,1,81.7,33.24a16,16,0,0,1,11.74-4.9H110v5.91h-3.89A16,16,0,0,1,110,44.93a16.41,16.41,0,0,1-2.42,8.73Zm-6.82-12A10.67,10.67,0,0,0,93.41,34.25h0a10.16,10.16,0,0,0-7.48,3.15,10.74,10.74,0,0,0,0,15.15,10.28,10.28,0,0,0,7.48,3.14,10.61,10.61,0,0,0,5-1.25l-2.58-2.58,5-5,2.38,2.37A11,11,0,0,0,104.08,44.94Z"/><path class="cls-3" d="M145.13,60.4h-7.29l-1.72-4.75h-6.43v-5.9h4.36l-4-11.38-7.83,22h-7.34l9.29-26.18H120.2V28.34h13.54Z"/></g></g></g></g></svg>